<svg xmlns="http://www.w3.org/2000/svg" xmlns:xlink="http://www.w3.org/1999/xlink" viewBox="0 0 316.93 182.91"><defs><style>.cls-1{fill:none;}.cls-2{isolation:isolate;}.cls-3{clip-path:url(#clip-path);}.cls-4{fill:#fff;}.cls-5{opacity:0.8;}.cls-12,.cls-13,.cls-5,.cls-7{mix-blend-mode:multiply;}.cls-6{fill:#0a1e29;}.cls-7,.cls-9{fill:#e00022;}.cls-8{opacity:0.91;}.cls-10{fill:#0a1c2e;}.cls-11{fill:#787878;}.cls-12{fill:url(#radial-gradient);}.cls-13{fill:url(#radial-gradient-2);}</style><clipPath id="clip-path" transform="translate(0 72.4)"><rect class="cls-1" width="280.48" height="70.19"/></clipPath><radialGradient id="radial-gradient" cx="1275.96" cy="1669.61" r="27.5" gradientTransform="matrix(1.84, 1.87, -0.64, 0.63, -1090.45, -3410.38)" gradientUnits="userSpaceOnUse"><stop offset="0" stop-color="#828282"/><stop offset="0.21" stop-color="#aaa"/><stop offset="0.44" stop-color="#cfcfcf"/><stop offset="0.66" stop-color="#e9e9e9"/><stop offset="0.85" stop-color="#f9f9f9"/><stop offset="1" stop-color="#fff"/></radialGradient><radialGradient id="radial-gradient-2" cx="1765.43" cy="-2099.26" r="27.5" gradientTransform="matrix(-1.87, 1.84, -0.63, -0.64, 2136.56, -4519.97)" xlink:href="#radial-gradient"/></defs><g class="cls-2"><g id="Capa_2" data-name="Capa 2"><g id="Layer_1" data-name="Layer 1"><g class="cls-3"><rect class="cls-4" y="72.4" width="280.48" height="70.19"/><g class="cls-5"><polygon class="cls-6" points="255.25 159.99 95.27 0 294.3 0 294.3 159.99 255.25 159.99"/></g><polygon class="cls-7" points="144.34 159.99 304.33 0 316.93 0 316.93 159.99 144.34 159.99"/><g class="cls-5"><polygon class="cls-6" points="273.74 66.44 166.13 174.05 300.01 174.05 300.01 66.44 273.74 66.44"/></g><polygon class="cls-7" points="199.14 66.44 306.75 174.05 315.23 174.05 315.23 66.44 199.14 66.44"/><g class="cls-8"><path class="cls-9" d="M24.06,35.44V26h2.31a4.86,4.86,0,0,1,1.14.12,2.5,2.5,0,0,1,.86.39,1.64,1.64,0,0,1,.57.74,3,3,0,0,1,.19,1.15c0,1.17-.47,1.81-1.39,1.95a1.93,1.93,0,0,1,1.25.73,2.72,2.72,0,0,1,.41,1.6,2.78,2.78,0,0,1-.67,2,2.62,2.62,0,0,1-2,.69Zm1.72-5.57h.53a1.37,1.37,0,0,0,1-.32,1.66,1.66,0,0,0,.28-1.09,2,2,0,0,0-.09-.65.69.69,0,0,0-.32-.37,1.29,1.29,0,0,0-.49-.16,4.61,4.61,0,0,0-.71,0h-.24Zm0,4.36h.63a1.35,1.35,0,0,0,1.06-.35,1.86,1.86,0,0,0,.29-1.18,1.9,1.9,0,0,0-.33-1.24,1.42,1.42,0,0,0-1.11-.38h-.54Z" transform="translate(0 72.4)"/><path class="cls-9" d="M31.06,35.44,33,26h1.79l1.91,9.41h-1.6l-.38-2.18H33.07l-.39,2.18Zm2.19-3.3h1.26l-.63-3.86Z" transform="translate(0 72.4)"/><path class="cls-9" d="M38.64,35.44V26h1.18l2.3,5.33V26h1.42v9.41H42.42l-2.33-5.6v5.6Z" transform="translate(0 72.4)"/><path class="cls-9" d="M46,35.44V26h1.18l2.3,5.33V26H50.9v9.41H49.78l-2.33-5.6v5.6Z" transform="translate(0 72.4)"/><path class="cls-9" d="M53.35,35.44V26h3.94v1.21H55.07v2.7h1.75v1.21H55.07v3.11h2.25v1.18Z" transform="translate(0 72.4)"/><path class="cls-9" d="M59.35,35.44V26h2.16a5.22,5.22,0,0,1,1.27.13,2.45,2.45,0,0,1,.93.4,1.71,1.71,0,0,1,.59.78,3.27,3.27,0,0,1,.2,1.2A3.38,3.38,0,0,1,64.23,30a1.59,1.59,0,0,1-.87.82l1.31,4.63H63l-1.12-4.29h-.76v4.29Zm1.72-5.39h.41a1.5,1.5,0,0,0,1.08-.32,1.58,1.58,0,0,0,.32-1.11,1.65,1.65,0,0,0-.28-1.08,1.27,1.27,0,0,0-1-.33h-.51Z" transform="translate(0 72.4)"/><path class="cls-9" d="M70.73,35.44V26h2.19a5.15,5.15,0,0,1,1.42.17,2.14,2.14,0,0,1,.92.54,2.06,2.06,0,0,1,.49.91A5,5,0,0,1,75.9,29v3.39a5.41,5.41,0,0,1-.15,1.37,2.32,2.32,0,0,1-.49,1,1.91,1.91,0,0,1-.9.58,4.51,4.51,0,0,1-1.37.18Zm1.71-1.2h.49a2,2,0,0,0,.45-.05,1.74,1.74,0,0,0,.32-.1.55.55,0,0,0,.22-.21,1.21,1.21,0,0,0,.2-.62,3.43,3.43,0,0,0,0-.41V28.91c0-.23,0-.41,0-.54a2,2,0,0,0,0-.42.86.86,0,0,0-.13-.32.81.81,0,0,0-.21-.2.73.73,0,0,0-.34-.13,2.41,2.41,0,0,0-.5,0h-.47Z" transform="translate(0 72.4)"/><path class="cls-9" d="M78.2,35.44V26h3.94v1.21H79.92v2.7h1.76v1.21H79.92v3.11h2.25v1.18Z" transform="translate(0 72.4)"/><path class="cls-9" d="M86.57,35.56q-2.47,0-2.61-2.88l1.5-.31c0,1.25.39,1.87,1.06,1.87a.72.72,0,0,0,.59-.24,1,1,0,0,0,.19-.64,1.94,1.94,0,0,0-.48-1.25,5.38,5.38,0,0,0-.53-.51l-1.24-1.08a3.61,3.61,0,0,1-.81-1A2.73,2.73,0,0,1,84,28.25a2.25,2.25,0,0,1,.64-1.71,2.5,2.5,0,0,1,1.77-.61,2.83,2.83,0,0,1,.91.12,2,2,0,0,1,.66.36,2,2,0,0,1,.43.56,3.46,3.46,0,0,1,.26.7,5.73,5.73,0,0,1,.11.8l-1.46.29c0-.19,0-.36,0-.5a2.07,2.07,0,0,0-.08-.42,1.27,1.27,0,0,0-.17-.35.61.61,0,0,0-.26-.21.7.7,0,0,0-.39-.07.79.79,0,0,0-.58.26.86.86,0,0,0-.2.61,1.51,1.51,0,0,0,.17.75,3.33,3.33,0,0,0,.56.63l1.23,1.06c.2.19.38.37.53.54a4.9,4.9,0,0,1,.44.6,2.89,2.89,0,0,1,.31.74,3.3,3.3,0,0,1,.11.85,2.23,2.23,0,0,1-.65,1.66A2.31,2.31,0,0,1,86.57,35.56Z" transform="translate(0 72.4)"/><path class="cls-9" d="M91,35.44V26h1.69v9.41Z" transform="translate(0 72.4)"/><path class="cls-9" d="M97.57,35.57a2.17,2.17,0,0,1-1.92-.84,4.19,4.19,0,0,1-.59-2.43V29.24a6.35,6.35,0,0,1,.13-1.4,2.88,2.88,0,0,1,.43-1,1.83,1.83,0,0,1,.83-.66,3.28,3.28,0,0,1,1.29-.22,2.53,2.53,0,0,1,2,.68,3,3,0,0,1,.61,2.07v.46H98.71v-.48c0-.21,0-.38,0-.51a2.93,2.93,0,0,0-.07-.41.67.67,0,0,0-.44-.48,1.08,1.08,0,0,0-.43-.07,1.16,1.16,0,0,0-.34,0,.73.73,0,0,0-.25.12.59.59,0,0,0-.18.2,1.63,1.63,0,0,0-.1.25,1.22,1.22,0,0,0-.06.32c0,.13,0,.24,0,.34v4.18A2.77,2.77,0,0,0,97,33.89a.82.82,0,0,0,.8.39,1,1,0,0,0,.51-.11.78.78,0,0,0,.32-.35,1.8,1.8,0,0,0,.17-.54,5.06,5.06,0,0,0,0-.74v-.77h-1V30.66h2.56v4.78H99.29l-.13-.95A1.57,1.57,0,0,1,97.57,35.57Z" transform="translate(0 72.4)"/><path class="cls-9" d="M102.74,35.44V26h1.18l2.31,5.33V26h1.41v9.41h-1.12l-2.33-5.6v5.6Z" transform="translate(0 72.4)"/></g><g class="cls-8"><path class="cls-10" d="M24.82,38.49H23.39V37.44h4.19v1.05H26.15v3.62H24.82Z" transform="translate(0 72.4)"/><path class="cls-10" d="M32,40.62H29.36a.75.75,0,0,0,.31.44,1,1,0,0,0,.58.15,1.25,1.25,0,0,0,.45-.08,1.21,1.21,0,0,0,.38-.24l.67.7a2,2,0,0,1-1.54.59,2.5,2.5,0,0,1-1.12-.25,1.76,1.76,0,0,1-.74-.66,1.79,1.79,0,0,1-.27-1,1.82,1.82,0,0,1,.26-1,1.76,1.76,0,0,1,.71-.67,2.2,2.2,0,0,1,1-.24,2.14,2.14,0,0,1,1,.23,1.79,1.79,0,0,1,.7.64,1.94,1.94,0,0,1,.25,1S32,40.42,32,40.62Zm-2.4-1.12a.77.77,0,0,0-.25.46h1.48a.7.7,0,0,0-.74-.62A.74.74,0,0,0,29.59,39.5Z" transform="translate(0 72.4)"/><path class="cls-10" d="M39.05,38.83a1.64,1.64,0,0,1,.4,1.21v2.07H38.18V40.25a.94.94,0,0,0-.14-.56.5.5,0,0,0-.41-.18.6.6,0,0,0-.46.2.94.94,0,0,0-.17.61v1.79H35.73V40.25c0-.49-.18-.74-.55-.74a.6.6,0,0,0-.47.2.94.94,0,0,0-.17.61v1.79H33.27V38.49h1.21v.38a1.37,1.37,0,0,1,.48-.33,1.64,1.64,0,0,1,.6-.11,1.62,1.62,0,0,1,.68.14,1.2,1.2,0,0,1,.49.43,1.41,1.41,0,0,1,.54-.42,1.72,1.72,0,0,1,.72-.15A1.45,1.45,0,0,1,39.05,38.83Z" transform="translate(0 72.4)"/><path class="cls-10" d="M44.1,38.66a1.76,1.76,0,0,1,.64.66,2.14,2.14,0,0,1,0,2,1.67,1.67,0,0,1-.64.65,1.73,1.73,0,0,1-.9.24,1.34,1.34,0,0,1-1-.39v1.62H40.92V38.49h1.21v.36a1.32,1.32,0,0,1,1.07-.42A1.83,1.83,0,0,1,44.1,38.66Zm-.62,2.27a.89.89,0,0,0,.21-.63.92.92,0,0,0-.21-.63.73.73,0,0,0-.55-.23.75.75,0,0,0-.55.23.92.92,0,0,0-.21.63.89.89,0,0,0,.21.63.72.72,0,0,0,.55.24A.71.71,0,0,0,43.48,40.93Z" transform="translate(0 72.4)"/><path class="cls-10" d="M46.23,37.16H47.5v5H46.23Z" transform="translate(0 72.4)"/><path class="cls-10" d="M51.91,38.84a1.59,1.59,0,0,1,.48,1.26v2H51.21v-.46a1.1,1.1,0,0,1-1.07.53,1.64,1.64,0,0,1-.73-.15,1,1,0,0,1-.62-1,.94.94,0,0,1,.39-.8A2.09,2.09,0,0,1,50.4,40h.72c0-.39-.28-.58-.77-.58a1.69,1.69,0,0,0-.53.09,1.2,1.2,0,0,0-.45.23l-.43-.87a2.59,2.59,0,0,1,.73-.31,3.7,3.7,0,0,1,.87-.11A2,2,0,0,1,51.91,38.84Zm-1,2.43a.65.65,0,0,0,.24-.32v-.31h-.55c-.37,0-.55.12-.55.37a.31.31,0,0,0,.12.26.54.54,0,0,0,.35.1A.71.71,0,0,0,50.88,41.27Z" transform="translate(0 72.4)"/><path class="cls-10" d="M56.36,42a1.38,1.38,0,0,1-.39.15,2,2,0,0,1-.49.06,1.55,1.55,0,0,1-1.09-.35,1.32,1.32,0,0,1-.38-1V39.58h-.53v-.95H54v-1h1.26v1h.83v.95h-.83v1.2a.41.41,0,0,0,.11.3.34.34,0,0,0,.28.11.7.7,0,0,0,.38-.11Z" transform="translate(0 72.4)"/><path class="cls-10" d="M61.09,40.62H58.46a.71.71,0,0,0,.31.44,1,1,0,0,0,.57.15,1.26,1.26,0,0,0,.46-.08,1.49,1.49,0,0,0,.38-.24l.67.7a2,2,0,0,1-1.55.59,2.45,2.45,0,0,1-1.11-.25,1.86,1.86,0,0,1-.75-.66,1.88,1.88,0,0,1-.26-1,1.73,1.73,0,0,1,.26-1,1.7,1.7,0,0,1,.71-.67,2.25,2.25,0,0,1,2,0,1.67,1.67,0,0,1,.7.64,2,2,0,0,1,.26,1S61.1,40.42,61.09,40.62Zm-2.4-1.12a.68.68,0,0,0-.25.46h1.48a.77.77,0,0,0-.25-.46.74.74,0,0,0-.49-.16A.72.72,0,0,0,58.69,39.5Z" transform="translate(0 72.4)"/></g><path class="cls-11" d="M23.7,44.43H24v2h1.22v.28H23.7Z" transform="translate(0 72.4)"/><path class="cls-11" d="M26.14,46.59a.87.87,0,0,1-.32-.31.88.88,0,0,1-.11-.45.84.84,0,0,1,.11-.45.8.8,0,0,1,.32-.31A.87.87,0,0,1,26.6,45a.87.87,0,0,1,.77.42.94.94,0,0,1,.11.45,1,1,0,0,1-.11.45,1,1,0,0,1-.32.31,1,1,0,0,1-.45.11A1,1,0,0,1,26.14,46.59Zm.75-.24a.51.51,0,0,0,.2-.21.62.62,0,0,0,.08-.31.66.66,0,0,0-.08-.32.51.51,0,0,0-.2-.21.59.59,0,0,0-.29-.07.55.55,0,0,0-.51.28.66.66,0,0,0-.07.32.62.62,0,0,0,.07.31.6.6,0,0,0,.21.21.61.61,0,0,0,.3.08A.6.6,0,0,0,26.89,46.35Z" transform="translate(0 72.4)"/><path class="cls-11" d="M28.76,45a.8.8,0,0,1,.39-.08v.3h-.07a.54.54,0,0,0-.4.15.63.63,0,0,0-.14.43v.85h-.31V45h.3v.29A.49.49,0,0,1,28.76,45Z" transform="translate(0 72.4)"/><path class="cls-11" d="M31.37,45.93H30a.5.5,0,0,0,.19.36.68.68,0,0,0,.42.14.64.64,0,0,0,.5-.21l.17.2a.86.86,0,0,1-.29.21,1,1,0,0,1-.39.07,1.06,1.06,0,0,1-.48-.11.87.87,0,0,1-.32-.31.88.88,0,0,1-.11-.45.84.84,0,0,1,.11-.45.75.75,0,0,1,.3-.31.82.82,0,0,1,.44-.11.8.8,0,0,1,.44.11.75.75,0,0,1,.3.31,1,1,0,0,1,.11.46S31.37,45.89,31.37,45.93Zm-1.21-.58a.51.51,0,0,0-.17.36h1.09a.54.54,0,0,0-.18-.35.49.49,0,0,0-.37-.14A.52.52,0,0,0,30.16,45.35Z" transform="translate(0 72.4)"/><path class="cls-11" d="M34.77,45.14a.75.75,0,0,1,.19.56v1h-.31v-1a.56.56,0,0,0-.11-.37.45.45,0,0,0-.33-.13.47.47,0,0,0-.37.15.56.56,0,0,0-.14.42v.88h-.31v-1a.51.51,0,0,0-.12-.37.41.41,0,0,0-.32-.13.5.5,0,0,0-.38.15.6.6,0,0,0-.13.42v.88h-.31V45h.29v.26a.55.55,0,0,1,.25-.2.86.86,0,0,1,.7,0,.51.51,0,0,1,.23.23.87.87,0,0,1,.27-.23,1,1,0,0,1,.39-.08A.69.69,0,0,1,34.77,45.14Z" transform="translate(0 72.4)"/><path class="cls-11" d="M37,44.59a.2.2,0,0,1-.06-.14.21.21,0,0,1,.36-.15.18.18,0,0,1,.06.14.21.21,0,0,1-.36.15ZM37,45h.31v1.71H37Z" transform="translate(0 72.4)"/><path class="cls-11" d="M39.61,45.07a.81.81,0,0,1,.31.3,1,1,0,0,1,.11.46.94.94,0,0,1-.11.45.84.84,0,0,1-.31.31.94.94,0,0,1-.45.11.72.72,0,0,1-.33-.07.75.75,0,0,1-.26-.21v.88h-.31V45h.3v.27a.61.61,0,0,1,.26-.21.77.77,0,0,1,.34-.07A.84.84,0,0,1,39.61,45.07Zm-.18,1.28a.53.53,0,0,0,.21-.21.62.62,0,0,0,.07-.31.66.66,0,0,0-.07-.32.53.53,0,0,0-.21-.21.64.64,0,0,0-.58,0,.6.6,0,0,0-.21.21.66.66,0,0,0-.08.32.62.62,0,0,0,.08.31.58.58,0,0,0,.2.21.61.61,0,0,0,.3.08A.55.55,0,0,0,39.43,46.35Z" transform="translate(0 72.4)"/><path class="cls-11" d="M40.86,46.64a.7.7,0,0,1-.3-.14l.13-.24a1,1,0,0,0,.27.12,1,1,0,0,0,.33,0c.27,0,.4-.08.4-.23a.13.13,0,0,0,0-.12A.46.46,0,0,0,41.5,46l-.23,0-.34-.08a.52.52,0,0,1-.22-.14.41.41,0,0,1-.1-.28.43.43,0,0,1,.2-.37.82.82,0,0,1,.52-.14,1.37,1.37,0,0,1,.34,0,1,1,0,0,1,.28.11l-.13.25a.92.92,0,0,0-.5-.14.51.51,0,0,0-.3.07.21.21,0,0,0-.1.17.16.16,0,0,0,.06.13l.14.07.24.05a1.9,1.9,0,0,1,.34.08.46.46,0,0,1,.21.13.4.4,0,0,1,.09.27.41.41,0,0,1-.2.37.92.92,0,0,1-.53.14A1.4,1.4,0,0,1,40.86,46.64Z" transform="translate(0 72.4)"/><path class="cls-11" d="M44.3,45v1.71H44v-.26a.64.64,0,0,1-.25.21A.7.7,0,0,1,42.7,46V45H43v1a.54.54,0,0,0,.12.38.47.47,0,0,0,.34.12.5.5,0,0,0,.39-.15.53.53,0,0,0,.14-.41V45Z" transform="translate(0 72.4)"/><path class="cls-11" d="M47.86,45.14a.79.79,0,0,1,.19.56v1h-.31v-1a.51.51,0,0,0-.12-.37.41.41,0,0,0-.32-.13.49.49,0,0,0-.38.15.61.61,0,0,0-.14.42v.88h-.31v-1a.51.51,0,0,0-.11-.37.44.44,0,0,0-.33-.13.48.48,0,0,0-.37.15.61.61,0,0,0-.14.42v.88h-.31V45h.3v.26a.52.52,0,0,1,.24-.2A.78.78,0,0,1,46.1,45a.67.67,0,0,1,.35.08.59.59,0,0,1,.24.23A.69.69,0,0,1,47,45a.93.93,0,0,1,.39-.08A.72.72,0,0,1,47.86,45.14Z" transform="translate(0 72.4)"/><path class="cls-11" d="M51.74,44.29v2.39h-.3v-.27a.78.78,0,0,1-.26.22.81.81,0,0,1-.35.07.9.9,0,0,1-.44-.11.77.77,0,0,1-.31-.31.84.84,0,0,1-.11-.45.87.87,0,0,1,.11-.46.75.75,0,0,1,.31-.3.8.8,0,0,1,.44-.11.77.77,0,0,1,.34.07.63.63,0,0,1,.26.2v-.94Zm-.59,2.06a.53.53,0,0,0,.21-.21.74.74,0,0,0,.07-.31.79.79,0,0,0-.07-.32.53.53,0,0,0-.21-.21.59.59,0,0,0-.29-.07.6.6,0,0,0-.3.07.51.51,0,0,0-.2.21.57.57,0,0,0-.08.32.53.53,0,0,0,.08.31.51.51,0,0,0,.2.21.61.61,0,0,0,.3.08A.6.6,0,0,0,51.15,46.35Z" transform="translate(0 72.4)"/><path class="cls-11" d="M52.92,46.59a.87.87,0,0,1-.32-.31.88.88,0,0,1-.11-.45.84.84,0,0,1,.11-.45.8.8,0,0,1,.32-.31.84.84,0,0,1,.45-.11.87.87,0,0,1,.46.11.77.77,0,0,1,.31.31.84.84,0,0,1,.12.45.89.89,0,0,1-.12.45.84.84,0,0,1-.31.31,1,1,0,0,1-.46.11A.94.94,0,0,1,52.92,46.59Zm.75-.24a.51.51,0,0,0,.2-.21.62.62,0,0,0,.08-.31.66.66,0,0,0-.08-.32.51.51,0,0,0-.2-.21.6.6,0,0,0-.3-.07.57.57,0,0,0-.29.07.53.53,0,0,0-.21.21.66.66,0,0,0-.07.32.62.62,0,0,0,.07.31.53.53,0,0,0,.21.21.57.57,0,0,0,.29.08A.61.61,0,0,0,53.67,46.35Z" transform="translate(0 72.4)"/><path class="cls-11" d="M55,44.29h.31v2.39H55Z" transform="translate(0 72.4)"/><path class="cls-11" d="M56.5,46.59a.84.84,0,0,1-.31-.31.89.89,0,0,1-.12-.45.84.84,0,0,1,.12-.45.77.77,0,0,1,.31-.31,1,1,0,0,1,.92,0,.87.87,0,0,1,.43.76.89.89,0,0,1-.12.45.92.92,0,0,1-.31.31,1,1,0,0,1-.92,0Zm.75-.24a.53.53,0,0,0,.21-.21.62.62,0,0,0,.07-.31.66.66,0,0,0-.07-.32.53.53,0,0,0-.21-.21.64.64,0,0,0-.58,0,.53.53,0,0,0-.21.21.66.66,0,0,0-.08.32.62.62,0,0,0,.08.31.53.53,0,0,0,.21.21.57.57,0,0,0,.58,0Z" transform="translate(0 72.4)"/><path class="cls-11" d="M59.13,45a.76.76,0,0,1,.38-.08v.3h-.07a.5.5,0,0,0-.39.15.59.59,0,0,0-.15.43v.85h-.3V45h.29v.29A.51.51,0,0,1,59.13,45Z" transform="translate(0 72.4)"/><path class="cls-11" d="M61.51,46.64a.7.7,0,0,1-.3-.14l.13-.24a.85.85,0,0,0,.27.12,1,1,0,0,0,.33,0c.27,0,.4-.08.4-.23a.17.17,0,0,0-.05-.12.46.46,0,0,0-.14-.07l-.23,0-.34-.08a.46.46,0,0,1-.22-.14.41.41,0,0,1-.1-.28.43.43,0,0,1,.2-.37A.82.82,0,0,1,62,45a1.37,1.37,0,0,1,.34,0,1,1,0,0,1,.28.11l-.13.25a.92.92,0,0,0-.5-.14.51.51,0,0,0-.3.07.19.19,0,0,0-.1.17.16.16,0,0,0,.06.13.46.46,0,0,0,.14.07l.24.05a1.59,1.59,0,0,1,.33.08.45.45,0,0,1,.22.13.4.4,0,0,1,.09.27.41.41,0,0,1-.2.37.94.94,0,0,1-.54.14A1.34,1.34,0,0,1,61.51,46.64Z" transform="translate(0 72.4)"/><path class="cls-11" d="M63.36,44.59a.19.19,0,0,1,0-.14.2.2,0,0,1,0-.15.22.22,0,0,1,.3,0,.18.18,0,0,1,.06.14.21.21,0,0,1-.36.15Zm0,.38h.31v1.71h-.31Z" transform="translate(0 72.4)"/><path class="cls-11" d="M65.54,46.58a.46.46,0,0,1-.17.09.64.64,0,0,1-.2,0,.54.54,0,0,1-.4-.14.49.49,0,0,1-.14-.39v-.94h-.29V45h.29V44.6h.3V45h.49v.26h-.49v.92a.31.31,0,0,0,.07.21.28.28,0,0,0,.2.08.36.36,0,0,0,.24-.08Z" transform="translate(0 72.4)"/><path class="cls-11" d="M68.59,45.13a.7.7,0,0,1,.18.52v1h-.29v-.23a.52.52,0,0,1-.22.19.86.86,0,0,1-.34.06.74.74,0,0,1-.46-.14.45.45,0,0,1-.17-.36.47.47,0,0,1,.16-.36A.78.78,0,0,1,68,45.7h.49v-.06a.39.39,0,0,0-.12-.31.5.5,0,0,0-.34-.11,1,1,0,0,0-.3.05.8.8,0,0,0-.24.14l-.13-.23a1,1,0,0,1,.31-.17A1.74,1.74,0,0,1,68,45,.82.82,0,0,1,68.59,45.13Zm-.31,1.25a.46.46,0,0,0,.19-.22v-.24H68c-.26,0-.39.09-.39.26a.24.24,0,0,0,.1.21.43.43,0,0,0,.27.07A.62.62,0,0,0,68.28,46.38Z" transform="translate(0 72.4)"/><path class="cls-11" d="M72.31,45.14a.75.75,0,0,1,.19.56v1h-.31v-1a.51.51,0,0,0-.11-.37.45.45,0,0,0-.33-.13.48.48,0,0,0-.37.15.61.61,0,0,0-.14.42v.88h-.31v-1a.56.56,0,0,0-.11-.37.45.45,0,0,0-.33-.13.47.47,0,0,0-.37.15.56.56,0,0,0-.14.42v.88h-.31V45H70v.26a.52.52,0,0,1,.24-.2.77.77,0,0,1,.34-.07.68.68,0,0,1,.36.08.59.59,0,0,1,.24.23.69.69,0,0,1,.27-.23A.92.92,0,0,1,71.8,45,.69.69,0,0,1,72.31,45.14Z" transform="translate(0 72.4)"/><path class="cls-11" d="M74.94,45.93H73.56a.5.5,0,0,0,.19.36.68.68,0,0,0,.42.14.64.64,0,0,0,.5-.21l.17.2a.86.86,0,0,1-.29.21,1,1,0,0,1-.39.07,1.06,1.06,0,0,1-.48-.11,1,1,0,0,1-.32-.31.88.88,0,0,1-.11-.45.84.84,0,0,1,.11-.45.75.75,0,0,1,.3-.31A.82.82,0,0,1,74.1,45a.8.8,0,0,1,.44.11.75.75,0,0,1,.3.31,1,1,0,0,1,.11.46S74.94,45.89,74.94,45.93Zm-1.21-.58a.51.51,0,0,0-.17.36h1.09a.54.54,0,0,0-.18-.35.48.48,0,0,0-.37-.14A.52.52,0,0,0,73.73,45.35Z" transform="translate(0 72.4)"/><path class="cls-11" d="M76.66,46.58a.56.56,0,0,1-.17.09l-.21,0a.57.57,0,0,1-.4-.14.53.53,0,0,1-.14-.39v-.94h-.29V45h.29V44.6h.31V45h.49v.26h-.49v.92a.27.27,0,0,0,.07.21.26.26,0,0,0,.2.08.41.41,0,0,0,.24-.08Z" transform="translate(0 72.4)"/><path class="cls-12" d="M140.22-17.15c1.66,14,15.15,36.34,35.87,57.35S218.94,75,233,76.85Z" transform="translate(0 72.4)"/><path class="cls-13" d="M202.41,17.78c-14,1.67-36.35,15.15-57.36,35.88S110.26,96.5,108.4,110.51Z" transform="translate(0 72.4)"/></g></g></g></g></svg>